<?xml version="1.0" encoding="UTF-8" standalone="no"?>
<svg
   xmlns:dc="http://purl.org/dc/elements/1.1/"
   xmlns:cc="http://creativecommons.org/ns#"
   xmlns:rdf="http://www.w3.org/1999/02/22-rdf-syntax-ns#"
   xmlns:svg="http://www.w3.org/2000/svg"
   xmlns="http://www.w3.org/2000/svg"
   viewBox="0 0 4800 1020"
   height="1020"
   width="4800"
   xml:space="preserve"
   id="svg2"
   version="1.1"><metadata
     id="metadata8"><rdf:RDF><cc:Work
         rdf:about=""><dc:format>image/svg+xml</dc:format><dc:type
           rdf:resource="http://purl.org/dc/dcmitype/StillImage" /></cc:Work></rdf:RDF></metadata><defs
     id="defs6" /><g
     transform="matrix(1.3333333,0,0,-1.3333333,0,1020)"
     id="g10"><g
       transform="scale(0.1)"
       id="g12"><path
         id="path14"
         style="fill:#525555;fill-opacity:1;fill-rule:nonzero;stroke:none"
         d="m 12162.1,4256.45 c 0,197.93 191.5,340.48 465.8,340.48 388.4,0 658.3,-190.82 741.2,-281.37 91.3,-105.33 193.9,-121.04 246.9,-121.04 173.7,0 316.2,150.81 316.2,317.79 0,311.28 -584.2,687.27 -1309.8,687.27 -534.9,0 -1112.2,-353.29 -1112.2,-924.14 0,-1239.61 1822.5,-874.19 1822.5,-1619.89 0,-237.3 -296.1,-382.82 -685.7,-382.82 -388.3,0 -658.2,190.82 -741.1,281.37 -91.3,105.32 -193.9,121.04 -246.9,121.04 -173.7,0 -316.3,-175.39 -316.3,-342.39 0,-311.26 584.3,-687.25 1309.8,-687.25 h 0.7 c 800.1,0 1339.6,449.97 1339.6,1016.18 0,1212.18 -1830.7,922.28 -1830.7,1594.77" /><path
         id="path16"
         style="fill:none;stroke:#525555;stroke-width:88.84049988;stroke-linecap:butt;stroke-linejoin:miter;stroke-miterlimit:10;stroke-dasharray:none;stroke-opacity:1"
         d="m 12162.1,4256.45 c 0,197.93 191.5,340.48 465.8,340.48 388.4,0 658.3,-190.82 741.2,-281.37 91.3,-105.33 193.9,-121.04 246.9,-121.04 173.7,0 316.2,150.81 316.2,317.79 0,311.28 -584.2,687.27 -1309.8,687.27 -534.9,0 -1112.2,-353.29 -1112.2,-924.14 0,-1239.61 1822.5,-874.19 1822.5,-1619.89 0,-237.3 -296.1,-382.82 -685.7,-382.82 -388.3,0 -658.2,190.82 -741.1,281.37 -91.3,105.32 -193.9,121.04 -246.9,121.04 -173.7,0 -316.3,-175.39 -316.3,-342.39 0,-311.26 584.3,-687.25 1309.8,-687.25 h 0.7 c 800.1,0 1339.6,449.97 1339.6,1016.18 0,1212.18 -1830.7,922.28 -1830.7,1594.77 z" /><g
         transform="scale(1.12239)"
         id="g18"><path
           id="path20"
           style="fill:#525555;fill-opacity:1;fill-rule:nonzero;stroke:none"
           d="m 14738.9,2021.74 c -570.9,0 -969.5,416.76 -969.5,1013.51 0,672.52 487.7,1024.39 969.5,1024.39 558.6,0 964.1,-430.81 964.1,-1024.39 0,-596.75 -396.5,-1013.51 -964.1,-1013.51 z m 0,2571.94 c -893,0 -1566.5,-672.33 -1566.5,-1563.85 0,-906.14 658.8,-1563.86 1566.5,-1563.86 919.2,0 1561.1,643.11 1561.1,1563.86 0,891.52 -671.1,1563.85 -1561.1,1563.85" /></g><g
         transform="scale(1.12239)"
         id="g22"><path
           id="path24"
           style="fill:none;stroke:#525555;stroke-width:79.15319824;stroke-linecap:butt;stroke-linejoin:miter;stroke-miterlimit:10;stroke-dasharray:none;stroke-opacity:1"
           d="m 14738.9,2021.74 c -570.9,0 -969.5,416.76 -969.5,1013.51 0,672.52 487.7,1024.39 969.5,1024.39 558.6,0 964.1,-430.81 964.1,-1024.39 0,-596.75 -396.5,-1013.51 -964.1,-1013.51 z m 0,2571.94 c -893,0 -1566.5,-672.33 -1566.5,-1563.85 0,-906.14 658.8,-1563.86 1566.5,-1563.86 919.2,0 1561.1,643.11 1561.1,1563.86 0,891.52 -671.1,1563.85 -1561.1,1563.85 z" /></g><g
         transform="scale(1.35851)"
         id="g26"><path
           id="path28"
           style="fill:#525555;fill-opacity:1;fill-rule:nonzero;stroke:none"
           d="m 16023.2,2043.26 c -53,0 -130.7,-18.46 -199.2,-106.45 -107.3,-150.28 -322.1,-243.98 -560,-243.98 -303,0 -783.4,284.17 -783.4,814.86 0,410.63 323.8,828.32 769.9,828.32 200.9,0 381.7,-76.03 483.6,-203.35 58.1,-69.66 128.6,-106.59 203.7,-106.59 135.5,0 258.8,121.21 258.8,254.31 0,210.95 -384,523.91 -914.6,523.91 -839.3,0 -1292.1,-679.62 -1292.1,-1319.06 0,-613.63 400.1,-1274.1 1278.5,-1274.1 588.6,0 1031.6,347.78 1031.6,573.3 0,133.06 -134.6,258.83 -276.8,258.83" /></g><g
         transform="scale(1.35851)"
         id="g30"><path
           id="path32"
           style="fill:none;stroke:#525555;stroke-width:65.39559937;stroke-linecap:butt;stroke-linejoin:miter;stroke-miterlimit:10;stroke-dasharray:none;stroke-opacity:1"
           d="m 16023.2,2043.26 c -53,0 -130.7,-18.46 -199.2,-106.45 -107.3,-150.28 -322.1,-243.98 -560,-243.98 -303,0 -783.4,284.17 -783.4,814.86 0,410.63 323.8,828.32 769.9,828.32 200.9,0 381.7,-76.03 483.6,-203.35 58.1,-69.66 128.6,-106.59 203.7,-106.59 135.5,0 258.8,121.21 258.8,254.31 0,210.95 -384,523.91 -914.6,523.91 -839.3,0 -1292.1,-679.62 -1292.1,-1319.06 0,-613.63 400.1,-1274.1 1278.5,-1274.1 588.6,0 1031.6,347.78 1031.6,573.3 0,133.06 -134.6,258.83 -276.8,258.83 z" /></g><g
         transform="scale(1.98347)"
         id="g34"><path
           id="path36"
           style="fill:#525555;fill-opacity:1;fill-rule:nonzero;stroke:none"
           d="m 16138.1,2584.07 c -130.7,0 -374,-65.74 -505.8,-211.93 -9.6,-12.89 -17.2,-17.04 -18.5,-17.74 l -4.7,-1.08 c -13.5,0 -13.5,14.26 -13.5,19.63 v 15.38 c 0,6.29 0.7,11.85 1.5,17.74 0.8,5.64 1.6,11.6 1.6,19.2 0,107.6 -85.9,155.74 -171.1,155.74 -89.6,0 -180.4,-51.37 -180.4,-149.58 v -6.16 c 6.7,-255.22 9.3,-433.02 9.3,-633.86 0,-205.32 -5.9,-453.52 -15.4,-801.095 v -5.865 c 0,-106.293 89.2,-161.897 177.3,-161.897 53.9,0 96.6,16.031 126.9,47.634 29.6,30.865 46.1,76.86 44.2,123.05 -6.4,258.993 -9.2,456.043 -9.2,588.943 0,94.69 3.1,169.39 3.1,234.35 0,242.92 310.9,406.52 522.8,428.32 h 0.2 c 133.7,11.91 193.6,99.19 193.6,180.42 0,78.93 -55.7,158.8 -161.9,158.8" /></g><g
         transform="scale(1.98347)"
         id="g38"><path
           id="path40"
           style="fill:none;stroke:#525555;stroke-width:44.79040146;stroke-linecap:butt;stroke-linejoin:miter;stroke-miterlimit:10;stroke-dasharray:none;stroke-opacity:1"
           d="m 16138.1,2584.07 c -130.7,0 -374,-65.74 -505.8,-211.93 -9.6,-12.89 -17.2,-17.04 -18.5,-17.74 l -4.7,-1.08 c -13.5,0 -13.5,14.26 -13.5,19.63 v 15.38 c 0,6.29 0.7,11.85 1.5,17.74 0.8,5.64 1.6,11.6 1.6,19.2 0,107.6 -85.9,155.74 -171.1,155.74 -89.6,0 -180.4,-51.37 -180.4,-149.58 v -6.16 c 6.7,-255.22 9.3,-433.02 9.3,-633.86 0,-205.32 -5.9,-453.52 -15.4,-801.095 v -5.865 c 0,-106.293 89.2,-161.897 177.3,-161.897 53.9,0 96.6,16.031 126.9,47.634 29.6,30.865 46.1,76.86 44.2,123.05 -6.4,258.993 -9.2,456.043 -9.2,588.943 0,94.69 3.1,169.39 3.1,234.35 0,242.92 310.9,406.52 522.8,428.32 h 0.2 c 133.7,11.91 193.6,99.19 193.6,180.42 0,78.93 -55.7,158.8 -161.9,158.8 z" /></g><g
         transform="scale(1.79153)"
         id="g42"><path
           id="path44"
           style="fill:#525555;fill-opacity:1;fill-rule:nonzero;stroke:none"
           d="m 15768.7,2443.23 c 0,30.54 5.3,55.83 69.5,55.83 h 292.7 c 107.2,0 162.1,83.66 169.1,166.57 -0.1,84.86 -50.2,171.46 -162.3,171.46 h -296.1 c -43.8,0 -66.1,12.31 -66.1,79.67 0.1,2.25 6.8,118.46 6.8,222.67 0,150.56 -66,226.91 -196.2,226.91 -92.6,0 -186.1,-51.18 -186.1,-165.6 v -10.25 c 3.4,-40.38 3.4,-89.11 3.4,-136.23 0,-91.11 -3.3,-136.72 -3.4,-137.86 0,-62.34 -9.9,-79.31 -79.6,-79.31 h -146.3 c -113.8,0 -165.6,-87.62 -165.6,-169.03 0,-85.23 58,-175.82 165.6,-175.82 h 153.1 c 39.9,0 72.8,-4.95 72.8,-66.04 v -57.92 c 0,-81.01 -1.4,-209.93 -3,-346.41 -1.9,-160.02 -3.8,-325.52 -3.8,-447.31 0,-163.99 0,-662.975 567.6,-662.975 120.4,0 322.3,25.493 322.3,196.265 0,78.65 -55.6,162.22 -158.8,162.22 -4.5,0 -8.9,-0.81 -13.4,-1.57 -5.7,-0.96 -11.5,-1.86 -17.3,-1.86 l -9.6,-1.02 c -29.5,-2.97 -57.4,-5.79 -82.3,-5.79 -233.4,0 -243.2,136.18 -243.2,444.18 0,147.87 3.3,317.92 6.2,467.94 2.2,111.89 4,208.53 4,271.28" /></g><g
         transform="scale(1.79153)"
         id="g46"><path
           id="path48"
           style="fill:none;stroke:#525555;stroke-width:49.58919907;stroke-linecap:butt;stroke-linejoin:miter;stroke-miterlimit:10;stroke-dasharray:none;stroke-opacity:1"
           d="m 15768.7,2443.23 c 0,30.54 5.3,55.83 69.5,55.83 h 292.7 c 107.2,0 162.1,83.66 169.1,166.57 -0.1,84.86 -50.2,171.46 -162.3,171.46 h -296.1 c -43.8,0 -66.1,12.31 -66.1,79.67 0.1,2.25 6.8,118.46 6.8,222.67 0,150.56 -66,226.91 -196.2,226.91 -92.6,0 -186.1,-51.18 -186.1,-165.6 v -10.25 c 3.4,-40.38 3.4,-89.11 3.4,-136.23 0,-91.11 -3.3,-136.72 -3.4,-137.86 0,-62.34 -9.9,-79.31 -79.6,-79.31 h -146.3 c -113.8,0 -165.6,-87.62 -165.6,-169.03 0,-85.23 58,-175.82 165.6,-175.82 h 153.1 c 39.9,0 72.8,-4.95 72.8,-66.04 v -57.92 c 0,-81.01 -1.4,-209.93 -3,-346.41 -1.9,-160.02 -3.8,-325.52 -3.8,-447.31 0,-163.99 0,-662.975 567.6,-662.975 120.4,0 322.3,25.493 322.3,196.265 0,78.65 -55.6,162.22 -158.8,162.22 -4.5,0 -8.9,-0.81 -13.4,-1.57 -5.7,-0.96 -11.5,-1.86 -17.3,-1.86 l -9.6,-1.02 c -29.5,-2.97 -57.4,-5.79 -82.3,-5.79 -233.4,0 -243.2,136.18 -243.2,444.18 0,147.87 3.3,317.92 6.2,467.94 2.2,111.89 4,208.53 4,271.28 z" /></g><g
         transform="scale(1.61645)"
         id="g50"><path
           id="path52"
           style="fill:#525555;fill-opacity:1;fill-rule:nonzero;stroke:none"
           d="m 15216.1,1403.83 c -396.4,0 -673.2,289.36 -673.2,703.7 0,466.94 338.6,711.25 673.2,711.25 384.2,0 665.6,-299.09 669.3,-711.15 0,-414.44 -275.2,-703.8 -669.3,-703.8 z m 0,1785.75 c -620.2,0 -1087.8,-466.82 -1087.8,-1085.81 0,-629.15 457.5,-1085.81 1087.8,-1085.81 628,0 1083.9,456.66 1083.9,1085.81 0,618.99 -466,1085.81 -1083.9,1085.81" /></g><g
         transform="scale(1.61645)"
         id="g54"><path
           id="path56"
           style="fill:none;stroke:#525555;stroke-width:54.96009827;stroke-linecap:butt;stroke-linejoin:miter;stroke-miterlimit:10;stroke-dasharray:none;stroke-opacity:1"
           d="m 15216.1,1403.83 c -396.4,0 -673.2,289.36 -673.2,703.7 0,466.94 338.6,711.25 673.2,711.25 384.2,0 665.6,-299.09 669.3,-711.15 0,-414.44 -275.2,-703.8 -669.3,-703.8 z m 0,1785.75 c -620.2,0 -1087.8,-466.82 -1087.8,-1085.81 0,-629.15 457.5,-1085.81 1087.8,-1085.81 628,0 1083.9,456.66 1083.9,1085.81 0,618.99 -466,1085.81 -1083.9,1085.81 z" /></g><g
         transform="scale(2.20859)"
         id="g58"><path
           id="path60"
           style="fill:#525555;fill-opacity:1;fill-rule:nonzero;stroke:none"
           d="m 15417.4,1016.4 c -169.4,0 -250.6,103.39 -250.6,205.56 0,58.68 -1.1,248.81 580.3,315.17 58,6.62 60.3,-36.83 60.3,-154.36 0,-243.29 -138.1,-366.37 -390,-366.37 z m 667,334.44 c -2.8,16.78 -2.8,44.01 -2.8,72.83 0,102.57 12,237.43 16.6,276.74 l 0.9,13.45 c 2.4,39.19 4.6,73.05 4.6,109.8 0,472.83 -334.7,523.11 -532.3,523.11 -328.5,0 -593,-170.24 -593,-311.18 0,-75.61 64,-137.12 142.6,-137.12 24,0 70.4,7.12 111.8,54.81 37.5,41 143.4,135.87 319.3,135.87 218.9,0 235.9,-155.16 235.9,-204.69 0,-67.74 -26.1,-113.72 -66.6,-117.11 -51.7,-2.85 -848.1,-45.87 -848.1,-539.86 0,-241.25 197.8,-490.803 541.3,-490.803 199.3,0 407.6,57.698 506.3,171.576 8.1,8.11 13.3,11.52 20.8,11.52 9.5,0 14.2,-5.163 18.4,-13.47 44.2,-76.113 124.1,-130.945 188.6,-130.945 109.2,0 151.3,100.612 151.3,135.911 0,185.301 -215.6,90.441 -215.6,439.561" /></g><g
         transform="scale(2.20859)"
         id="g62"><path
           id="path64"
           style="fill:none;stroke:#525555;stroke-width:40.22499847;stroke-linecap:butt;stroke-linejoin:miter;stroke-miterlimit:10;stroke-dasharray:none;stroke-opacity:1"
           d="m 15417.4,1016.4 c -169.4,0 -250.6,103.39 -250.6,205.56 0,58.68 -1.1,248.81 580.3,315.17 58,6.62 60.3,-36.83 60.3,-154.36 0,-243.29 -138.1,-366.37 -390,-366.37 z m 667,334.44 c -2.8,16.78 -2.8,44.01 -2.8,72.83 0,102.57 12,237.43 16.6,276.74 l 0.9,13.45 c 2.4,39.19 4.6,73.05 4.6,109.8 0,472.83 -334.7,523.11 -532.3,523.11 -328.5,0 -593,-170.24 -593,-311.18 0,-75.61 64,-137.12 142.6,-137.12 24,0 70.4,7.12 111.8,54.81 37.5,41 143.4,135.87 319.3,135.87 218.9,0 235.9,-155.16 235.9,-204.69 0,-67.74 -26.1,-113.72 -66.6,-117.11 -51.7,-2.85 -848.1,-45.87 -848.1,-539.86 0,-241.25 197.8,-490.803 541.3,-490.803 199.3,0 407.6,57.698 506.3,171.576 8.1,8.11 13.3,11.52 20.8,11.52 9.5,0 14.2,-5.163 18.4,-13.47 44.2,-76.113 124.1,-130.945 188.6,-130.945 109.2,0 151.3,100.612 151.3,135.911 0,185.301 -215.6,90.441 -215.6,439.561 z" /></g><path
         id="path66"
         style="fill:#525555;fill-opacity:1;fill-rule:nonzero;stroke:none"
         d="m 4353.96,5018.74 c -64.92,0 -129.84,16.79 -187.98,50.38 L 911.152,6948.29 c -179.859,103.83 -241.464,333.78 -137.636,513.62 103.754,179.86 333.774,241.51 513.594,137.62 L 4353.96,5828.9 7420.77,7599.53 c 179.86,103.84 409.74,42.18 513.6,-137.62 103.83,-179.84 42.23,-409.79 -137.63,-513.62 L 4541.94,5069.12 c -58.14,-33.59 -123.06,-50.38 -187.98,-50.38" /><path
         id="path68"
         style="fill:none;stroke:#525555;stroke-width:88.84049988;stroke-linecap:butt;stroke-linejoin:miter;stroke-miterlimit:10;stroke-dasharray:none;stroke-opacity:1"
         d="m 4353.96,5018.74 c -64.92,0 -129.84,16.79 -187.98,50.38 L 911.152,6948.29 c -179.859,103.83 -241.464,333.78 -137.636,513.62 103.754,179.86 333.774,241.51 513.594,137.62 L 4353.96,5828.9 7420.77,7599.53 c 179.86,103.84 409.74,42.18 513.6,-137.62 103.83,-179.84 42.23,-409.79 -137.63,-513.62 L 4541.94,5069.12 c -58.14,-33.59 -123.06,-50.38 -187.98,-50.38 z" /><path
         id="path70"
         style="fill:#525555;fill-opacity:1;fill-rule:nonzero;stroke:none"
         d="m 3630.85,7.94922 c -207.66,0 -376,168.33978 -376,375.99978 V 3925.2 L 188.07,5695.84 C 8.21094,5799.66 -53.3906,6029.61 50.4375,6209.46 154.23,6389.28 384.18,6450.92 564.039,6347.08 L 3818.83,4467.91 c 116.36,-67.18 188.02,-191.3 188.02,-325.62 V 383.949 c 0,-207.66 -168.34,-375.99978 -376,-375.99978" /><path
         id="path72"
         style="fill:none;stroke:#525555;stroke-width:88.84049988;stroke-linecap:butt;stroke-linejoin:miter;stroke-miterlimit:10;stroke-dasharray:none;stroke-opacity:1"
         d="m 3630.85,7.94922 c -207.66,0 -376,168.33978 -376,375.99978 V 3925.2 L 188.07,5695.84 C 8.21094,5799.66 -53.3906,6029.61 50.4375,6209.46 154.23,6389.28 384.18,6450.92 564.039,6347.08 L 3818.83,4467.91 c 116.36,-67.18 188.02,-191.3 188.02,-325.62 V 383.949 c 0,-207.66 -168.34,-375.99978 -376,-375.99978 z" /><path
         id="path74"
         style="fill:#525555;fill-opacity:1;fill-rule:nonzero;stroke:none"
         d="m 5077.07,7.94922 c -207.65,0 -376,168.33978 -376,375.99978 V 4142.29 c 0,134.32 71.66,258.44 188.02,325.62 l 3254.8,1879.17 c 179.85,103.88 409.77,42.16 513.59,-137.62 103.83,-179.85 42.23,-409.8 -137.63,-513.62 L 5453.08,3925.2 V 383.949 c 0,-207.66 -168.35,-375.99978 -376.01,-375.99978" /><path
         id="path76"
         style="fill:none;stroke:#525555;stroke-width:88.84049988;stroke-linecap:butt;stroke-linejoin:miter;stroke-miterlimit:10;stroke-dasharray:none;stroke-opacity:1"
         d="m 5077.07,7.94922 c -207.65,0 -376,168.33978 -376,375.99978 V 4142.29 c 0,134.32 71.66,258.44 188.02,325.62 l 3254.8,1879.17 c 179.85,103.88 409.77,42.16 513.59,-137.62 103.83,-179.85 42.23,-409.8 -137.63,-513.62 L 5453.08,3925.2 V 383.949 c 0,-207.66 -168.35,-375.99978 -376.01,-375.99978 z" /></g></g></svg>